# xmcd CD database file
#
# Track frame offsets:
#       150
#       12524
#       25325
#       42048
#       54461
#       71354
#       89163
#       103027
#       114262
#       129489
#       141988
#
# Disc length: 2104 seconds
#
# Revision: 0
# Processed by: cddbd v1.5.2PL0 Copyright (c) Steve Scherf et al.
# Submitted via: jack 3.1.1
#
DISCID=9508360b
DTITLE=Diamond Jack and the Remittance Men - Diamond Jack and the Remittance Men
DYEAR=2008
DGENRE=Country
TTITLE0=Jingle Jangle Jingle
TTITLE1=Wha-Hoo
TTITLE2=A Boy Named Sue
TTITLE3=Back in the Saddle
TTITLE4=Don't Fence Me In
TTITLE5=Ghostriders in the Sky
TTITLE6=There's a Love Knot in my Lariat
TTITLE7=I Walk the Line
TTITLE8=Home on the Range
TTITLE9=Momma Make the Radio Play me a Cowboy Song
TTITLE10=The Gamblei Heart
EXTD=
EXTT0=
EXTT1=
EXTT2=
EXTT3=
EXTT4=
EXTT5=
EXTT6=
EXTT7=
EXTT8=
EXTT9=
EXTT10=
PLAYORDER=
